{
.appVersion = "3343";
.formatVersion = 3;
DisplayStrings = (
"ABCDEFGHIJKLMNOPQRSTUVWXYZ
0123456789",
R,
W,
"0"
);
axes = (
{
name = Serif;
tag = SRFF;
}
);
date = "2024-03-27 19:11:02 +0000";
familyName = Inkflow;
fontMaster = (
{
axesValues = (
0
);
customParameters = (
{
name = typoAscender;
value = 800;
},
{
name = typoDescender;
value = -200;
},
{
name = typoLineGap;
value = 200;
},
{
name = winAscent;
value = 1000;
},
{
name = winDescent;
value = 200;
},
{
name = hheaAscender;
value = 1000;
},
{
name = hheaDescender;
value = -200;
},
{
name = strikeoutPosition;
value = 0;
},
{
name = strikeoutSize;
value = 50;
}
);
id = m01;
metricValues = (
{
pos = 800;
},
{
},
{
},
{
},
{
pos = -200;
},
{
}
);
name = "san serif";
},
{
axesValues = (
100
);
customParameters = (
{
name = typoAscender;
value = 800;
},
{
name = typoDescender;
value = -200;
},
{
name = typoLineGap;
value = 200;
},
{
name = winAscent;
value = 1000;
},
{
name = winDescent;
value = 200;
},
{
name = hheaAscender;
value = 1000;
},
{
name = hheaDescender;
value = -200;
},
{
name = strikeoutPosition;
value = 0;
},
{
name = strikeoutSize;
value = 50;
}
);
id = m002;
metricValues = (
{
pos = 800;
},
{
},
{
},
{
},
{
pos = -200;
},
{
}
);
name = serif;
}
);
glyphs = (
{
glyphname = A;
lastChange = "2025-10-03 19:57:42 +0000";
layers = (
{
layerId = m01;
shapes = (
{
closed = 1;
nodes = (
(101,0,l),
(102,5,o),
(104,9,o),
(105,14,q),
(285,701,l),
(336,701,l),
(515,19,l),
(517,13,o),
(518,7,o),
(520,1,q),
(520,0,l),
(520,0,l),
(620,0,l),
(620,0,l),
(618,6,o),
(616,13,o),
(614,19,q),
(380,800,l),
(240,800,l),
(14,13,l),
(13,9,o),
(11,4,o),
(10,0,q),
(10,0,l),
(101,0,l)
);
},
{
closed = 1;
nodes = (
(448,418,l),
(178,418,l),
(158,328,l),
(470,328,l)
);
}
);
width = 630;
},
{
layerId = m002;
shapes = (
{
closed = 1;
nodes = (
(207,26,l),
(162,27,o),
(119,39,o),
(122,59,q),
(330,701,l),
(330,701,l),
(545,80,l),
(561,45,o),
(517,26,o),
(481,26,qs),
(478,26,l),
(478,0,l),
(705,0,l),
(705,26,l),
(675,26,o),
(616,78,o),
(606,117,q),
(380,800,l),
(308,774,l),
(72,65,l),
(66,52,o),
(26,27,o),
(5,26,q),
(5,0,l),
(207,0,l)
);
},
{
closed = 1;
nodes = (
(489,399,l),
(219,399,l),
(199,341,l),
(511,341,l)
);
}
);
width = 698;
}
);
note = A;
unicode = (65,97);
},
{
glyphname = B;
lastChange = "2025-10-03 19:57:42 +0000";
layers = (
{
layerId = m01;
shapes = (
{
closed = 1;
nodes = (
(506,0,o),
(603,89,o),
(603,234,cs),
(603,337,o),
(554,385,o),
(451,405,c),
(451,450,l),
(527,470,o),
(567,530,o),
(567,606,cs),
(567,727,o),
(478,800,o),
(301,800,cs),
(33,800,l),
(33,798,ls),
(33,792,o),
(33,787,o),
(33,781,cs),
(33,25,ls),
(33,17,o),
(33,8,o),
(33,0,cs),
(33,0,l),
(317,0,l),
(317,0,l)
);
},
{
closed = 1;
nodes = (
(132,391,o),
(138,391,o),
(143,391,cs),
(318,391,ls),
(447,391,o),
(510,353,o),
(521,240,c),
(521,141,o),
(464,94,o),
(316,94,cs),
(146,94,ls),
(140,94,o),
(133,94,o),
(127,94,c),
(127,391,l),
(127,391,l)
);
},
{
closed = 1;
nodes = (
(134,724,o),
(142,724,o),
(149,724,cs),
(303,724,ls),
(424,724,o),
(484,687,o),
(484,613,cs),
(484,512,o),
(424,470,o),
(303,470,cs),
(150,470,ls),
(142,470,o),
(135,470,o),
(127,470,c),
(127,724,l),
(127,724,l)
);
}
);
width = 610;
},
{
layerId = m002;
shapes = (
{
closed = 1;
nodes = (
(535,0,o),
(632,78,o),
(632,223,cs),
(632,325,o),
(565,415,o),
(429,419,c),
(429,419,l),
(528,419,o),
(614,492,o),
(606,616,cs),
(598,743,o),
(507,800,o),
(335,800,cs),
(39,800,l),
(39,772,l),
(71,772,o),
(105,772,o),
(105,740,cs),
(105,93,ls),
(105,36,o),
(62,36,o),
(39,36,c),
(39,0,l),
(351,0,l),
(351,0,l)
);
},
{
closed = 1;
nodes = (
(177,372,o),
(189,386,o),
(210,386,cs),
(352,386,ls),
(481,386,o),
(559,365,o),
(559,227,c),
(559,108,o),
(493,51,o),
(350,51,cs),
(204,51,ls),
(188,51,o),
(177,64,o),
(177,81,cs),
(177,355,l),
(177,355,l)
);
},
{
closed = 1;
nodes = (
(177,740,o),
(193,749,o),
(217,749,cs),
(348,749,ls),
(465,749,o),
(540,711,o),
(540,615,cs),
(540,556,o),
(517,454,o),
(378,454,cs),
(217,454,ls),
(188,454,o),
(177,472,o),
(177,503,cs),
(177,711,l),
(177,711,l)
);
}
);
width = 650;
}
);
note = B;
unicode = (66,98);
},
{
glyphname = C;
lastChange = "2025-10-03 19:57:42 +0000";
layers = (
{
layerId = m01;
shapes = (
{
closed = 1;
nodes = (
(502,0,o),
(618,105,o),
(635,277,c),
(538,277,l),
(521,162,o),
(445.667,91,o),
(327,95,cs),
(180.333,100.333,o),
(106,213,o),
(106,401,cs),
(106,591.761,o),
(193.407,712,o),
(328,712,cs),
(468,712,o),
(529,648,o),
(537,532,cs),
(538,527,o),
(538,521,o),
(538,516,c),
(637,516,l),
(636,557,o),
(629,594,o),
(618,626,cs),
(578,740,o),
(477,800,o),
(324,800,cs),
(196,800,o),
(100.667,735.5,o),
(50,613.5,cs),
(24.667,552.5,o),
(12,479,o),
(12,393,cs),
(12,142.335,o),
(130.675,0,o),
(324,0,cs)
);
}
);
width = 630;
},
{
layerId = m002;
shapes = (
{
closed = 1;
nodes = (
(485,-5,o),
(653,58,o),
(672,239,c),
(646,287,l),
(629,40,o),
(357,-2,o),
(217,105,cs),
(148,157,o),
(85,260,o),
(100,437,cs),
(117,619,o),
(207,735,o),
(378,746,cs),
(529,755,o),
(605,670,o),
(646,592,cs),
(646,592,o),
(655,612,o),
(659,620,c),
(639,730,l),
(634,724,o),
(622,695,o),
(607,701,cs),
(583,711,o),
(518,800,o),
(360,800,cs),
(233,800,o),
(125,722,o),
(69,632,cs),
(38,579,o),
(19,512,o),
(14,437,cs),
(7,332,o),
(15,13,o),
(357,0,cs)
);
}
);
width = 660;
}
);
note = C;
unicode = (67,99);
},
{
glyphname = D;
lastChange = "2025-10-03 19:57:42 +0000";
layers = (
{
layerId = m01;
shapes = (
{
closed = 1;
nodes = (
(527,0,o),
(652,145,o),
(652,408,cs),
(652,660,o),
(507,800,o),
(259,800,cs),
(30,800,l),
(30,800,l),
(30,793,o),
(30,786,o),
(30,779,cs),
(30,24,ls),
(30,16,o),
(30,8,o),
(30,0,c),
(30,0,l),
(259,0,l),
(259,0,l)
);
},
{
closed = 1;
nodes = (
(131,713,o),
(137,713,o),
(142,713,cs),
(248,713,ls),
(384,713,o),
(482,661,o),
(527,574,cs),
(550,533,o),
(561,477,o),
(561,408,cs),
(561,271,o),
(517,172,o),
(428,128,cs),
(381,106,o),
(321,95,o),
(248,95,cs),
(138,95,ls),
(134,95,o),
(130,95,o),
(126,95,c),
(126,713,l),
(126,713,l)
);
}
);
width = 646;
},
{
background = {
shapes = (
{
closed = 1;
nodes = (
(535,0,o),
(632,78,o),
(632,223,cs),
(632,325,o),
(565,415,o),
(429,419,c),
(429,419,l),
(528,419,o),
(614,492,o),
(606,616,cs),
(598,743,o),
(507,800,o),
(335,800,cs),
(26,800,l),
(26,775,l),
(58,775,o),
(84,767,o),
(84,740,cs),
(84,93,ls),
(84,45,o),
(58,30,o),
(26,31,c),
(26,0,l),
(351,0,l),
(351,0,l)
);
},
{
closed = 1;
nodes = (
(177,372,o),
(189,386,o),
(210,386,cs),
(352,386,ls),
(481,386,o),
(559,365,o),
(559,227,c),
(559,108,o),
(493,51,o),
(350,51,cs),
(204,51,ls),
(188,51,o),
(177,64,o),
(177,81,cs),
(177,355,l),
(177,355,l)
);
},
{
closed = 1;
nodes = (
(177,740,o),
(193,749,o),
(217,749,cs),
(348,749,ls),
(465,749,o),
(540,711,o),
(540,615,cs),
(540,556,o),
(517,454,o),
(378,454,cs),
(217,454,ls),
(188,454,o),
(177,472,o),
(177,503,cs),
(177,711,l),
(177,711,l)
);
}
);
};
layerId = m002;
shapes = (
{
closed = 1;
nodes = (
(551,0,o),
(683,116,o),
(683,408,cs),
(683,664,o),
(546,800,o),
(278,800,cs),
(26,800,l),
(26,775,l),
(51,775,o),
(84,769,o),
(84,740,cs),
(84,93,ls),
(84,40,o),
(54,31,o),
(26,31,c),
(26,0,l),
(278,0,l),
(278,0,l)
);
},
{
closed = 1;
nodes = (
(157,734,o),
(165,746,o),
(181,746,cs),
(267,746,ls),
(425,746,o),
(510,712,o),
(569,608,cs),
(615,527,o),
(617,445,o),
(617,408,cs),
(617,242,o),
(551,131,o),
(452,92,cs),
(382,64,o),
(323,59,o),
(245,59,cs),
(184,59,ls),
(166,59,o),
(157,75,o),
(157,86,c),
(157,728,l),
(157,728,l)
);
}
);
width = 646;
}
);
note = D;
unicode = (68,100);
},
{
glyphname = E;
lastChange = "2025-10-03 19:57:42 +0000";
layers = (
{
layerId = m01;
shapes = (
{
closed = 1;
nodes = (
(153,800,l),
(57,800,l),
(57,778,l),
(57,773,o),
(57,769,o),
(57,765,c),
(57,44,l),
(57,41,o),
(57,37,o),
(57,34,c),
(57,0,l),
(153,0,l)
);
},
{
closed = 1;
nodes = (
(574,800,l),
(57,800,l),
(57,704,l),
(550,704,l),
(561,704,l),
(574,704,l)
);
},
{
closed = 1;
nodes = (
(577,96,l),
(551,96,l),
(525,96,l),
(57,96,l),
(57,0,l),
(577,0,l)
);
},
{
closed = 1;
nodes = (
(473,460,l),
(463,460,l),
(461,460,o),
(458,460,o),
(456,460,c),
(57,460,l),
(57,374,l),
(457,374,l),
(459,374,o),
(462,374,o),
(464,374,c),
(473,374,l)
);
}
);
width = 600;
},
{
layerId = m002;
shapes = (
{
closed = 1;
nodes = (
(178,800,l),
(39,800,l),
(39,772,l),
(59,772,o),
(105,775,o),
(105,741,c),
(105,95,l),
(105,35,o),
(63,36,o),
(39,36,c),
(39,0,l),
(178,0,l)
);
},
{
closed = 1;
nodes = (
(587,800,l),
(98,800,l),
(98,760,l),
(558,760,l),
(589,716,l),
(609,716,l)
);
},
{
closed = 1;
nodes = (
(626,156,l),
(602,156,l),
(569,40,l),
(98,40,l),
(98,0,l),
(617,0,l)
);
},
{
closed = 1;
nodes = (
(549,564,l),
(513,564,l),
(513,488,o),
(501,429,o),
(437,429,c),
(115,429,l),
(115,389,l),
(437,391,l),
(502,391,o),
(513,347,o),
(513,284,c),
(549,284,l)
);
}
);
width = 630;
}
);
note = E;
unicode = (69,101);
},
{
glyphname = F;
lastChange = "2025-10-03 19:57:42 +0000";
layers = (
{
layerId = m01;
shapes = (
{
closed = 1;
nodes = (
(149,10,l),
(149,12,o),
(149,14,o),
(149,16,c),
(149,801,l),
(52,801,l),
(52,787,l),
(52,783,o),
(52,780,o),
(52,776,c),
(52,17,l),
(52,14,o),
(52,12,o),
(52,9,c),
(52,0,l),
(149,0,l)
);
},
{
closed = 1;
nodes = (
(569,801,l),
(52,801,l),
(52,704,l),
(523,704,l),
(550,704,l),
(569,704,l)
);
},
{
closed = 1;
nodes = (
(468,429,l),
(452,429,l),
(446,429,o),
(439,429,o),
(433,429,c),
(52,429,l),
(52,338,l),
(435,338,l),
(440,338,o),
(446,338,o),
(451,338,c),
(468,338,l)
);
}
);
width = 600;
},
{
layerId = m002;
shapes = (
{
closed = 1;
nodes = (
(243,25,l),
(214,25,o),
(178,42,o),
(178,82,c),
(178,800,l),
(39,800,l),
(39,772,l),
(48,772,o),
(105,779,o),
(105,740,c),
(105,96,l),
(105,40,o),
(71,36,o),
(39,36,c),
(39,0,l),
(243,0,l)
);
},
{
closed = 1;
nodes = (
(617,800,l),
(106,800,l),
(106,760,l),
(586,760,l),
(618,716,l),
(638,716,l)
);
},
{
closed = 1;
nodes = (
(549,564,l),
(513,564,l),
(513,502,o),
(507,429,o),
(440,429,c),
(106,429,l),
(106,391,l),
(440,391,l),
(518,391,o),
(513,308,o),
(513,284,c),
(549,284,l)
);
}
);
width = 630;
}
);
note = F;
unicode = (70,102);
},
{
glyphname = G;
lastChange = "2025-10-03 19:57:42 +0000";
layers = (
{
background = {
shapes = (
{
closed = 1;
nodes = (
(585,187,c),
(580,0,l),
(648,0,l),
(649,342,l),
(385,342,l),
(385,277,l),
(523,277,l),
(511,152,o),
(440,91,o),
(315,95,cs),
(168,100,o),
(94,213,o),
(94,401,cs),
(94,592,o),
(181,712,o),
(316,712,cs),
(457,712,o),
(517,643,o),
(521,516,c),
(609,516,l),
(620,516,l),
(615,701,o),
(501,800,o),
(312,800,cs),
(184,800,o),
(88.667,735.5,o),
(38,613.5,cs),
(12.667,552.5,o),
(0,479,o),
(0,393,cs),
(0,142,o),
(101,5,o),
(300,-10,cs),
(565,-30,o),
(581,166,o)
);
}
);
};
layerId = m01;
shapes = (
{
closed = 1;
nodes = (
(560,0,l),
(643,0,l),
(644,350,l),
(374,350,l),
(374,268,l),
(512,268,l),
(499,47,o),
(238,47,o),
(144,178,cs),
(102,237,o),
(84,344,o),
(97,452,cs),
(118,627,o),
(218,713,o),
(336,713,cs),
(451,713,o),
(514,656,o),
(523,518,c),
(601,518,l),
(622,518,l),
(614,618,o),
(586,802,o),
(344,806,cs),
(138,809,o),
(53,682,o),
(30,627,cs),
(2,561,o),
(-7,486,o),
(-10,416,cs),
(-22,142,o),
(115,1,o),
(296,-11,cs),
(432,-20,o),
(551,23,o),
(565,157,c)
);
}
);
width = 666;
},
{
layerId = m002;
shapes = (
{
closed = 1;
nodes = (
(645,0,l),
(688,28,l),
(688,344,l),
(413,344,l),
(413,305,l),
(639,305,l),
(618,43,o),
(344,10,o),
(220,102,cs),
(152,152,o),
(82,261,o),
(99,437,cs),
(119,649,o),
(242,746,o),
(377,746,cs),
(476,746,o),
(566,730,o),
(645,592,c),
(658,620,l),
(638,730,l),
(589,638,o),
(594,795,o),
(364,800,cs),
(228,803,o),
(109,715,o),
(58,612,cs),
(29,553,o),
(12,476,o),
(12,393,cs),
(12,149,o),
(141,18,o),
(322,3,cs),
(463,-9,o),
(591,32,o),
(645,147,c)
);
}
);
width = 690;
}
);
note = G;
unicode = (71,103);
},
{
glyphname = H;
kernLeft = "40";
lastChange = "2025-10-03 19:57:42 +0000";
layers = (
{
layerId = m01;
shapes = (
{
closed = 1;
nodes = (
(115,462,l),
(115,786,l),
(115,788,o),
(115,791,o),
(115,793,c),
(115,800,l),
(18,800,l),
(18,793,l),
(18,791,o),
(18,789,o),
(18,787,c),
(18,16,l),
(18,14,o),
(18,12,o),
(18,10,c),
(18,0,l),
(115,0,l),
(115,9,l),
(115,12,o),
(115,14,o),
(115,17,c),
(115,369,l),
(506,369,l),
(506,17,l),
(506,14,o),
(506,10,o),
(506,7,c),
(506,0,l),
(602,0,l),
(602,10,l),
(602,13,o),
(602,15,o),
(602,18,c),
(602,789,l),
(602,791,o),
(602,792,o),
(602,794,c),
(602,800,l),
(506,800,l),
(506,793,l),
(506,792,o),
(506,790,o),
(506,789,c),
(506,462,l)
);
}
);
width = 620;
},
{
background = {
shapes = (
{
closed = 0;
nodes = (
(175,734,l),
(175,771,o),
(193,772,o),
(241,772,c),
(241,800,l),
(36,800,l),
(36,772,l),
(84,772,o),
(102,766,o),
(102,734,c)
);
},
{
closed = 0;
nodes = (
(605,734,l),
(605,771,o),
(623,772,o),
(671,772,c),
(671,800,l),
(466,800,l),
(466,772,l),
(514,772,o),
(532,766,o),
(532,734,c)
);
}
);
};
layerId = m002;
shapes = (
{
closed = 1;
nodes = (
(175,429,l),
(175,729,l),
(175,766,o),
(189,772,o),
(241,772,c),
(241,800,l),
(36,800,l),
(36,772,l),
(88,772,o),
(102,766,o),
(102,729,c),
(103,94,l),
(103,32,o),
(53,36,o),
(37,36,c),
(37,0,l),
(244,0,l),
(244,36,l),
(235,36,o),
(176,32,o),
(176,94,c),
(175,391,l),
(532,391,l),
(532,90,l),
(532,37,o),
(485,36,o),
(466,36,c),
(466,0,l),
(671,0,l),
(671,36,l),
(652,36,o),
(605,36,o),
(605,89,c),
(605,729,l),
(605,771,o),
(621,772,o),
(671,772,c),
(671,800,l),
(466,800,l),
(466,772,l),
(516,772,o),
(532,771,o),
(532,729,c),
(532,429,l)
);
}
);
width = 700;
}
);
note = H;
unicode = (72,104);
},
{
glyphname = I;
lastChange = "2025-10-03 19:57:42 +0000";
layers = (
{
layerId = m01;
shapes = (
{
closed = 1;
nodes = (
(152,8,l),
(152,10,o),
(152,11,o),
(152,13,c),
(152,783,l),
(152,785,o),
(152,788,o),
(152,790,c),
(152,800,l),
(58,800,l),
(58,788,l),
(58,786,o),
(58,784,o),
(58,782,c),
(58,13,l),
(58,11,o),
(58,10,o),
(58,8,c),
(58,0,l),
(152,0,l)
);
}
);
width = 210;
},
{
background = {
shapes = (
{
closed = 1;
nodes = (
(183,800,l),
(44,800,l),
(44,772,l),
(64,772,o),
(110,775,o),
(110,741,c),
(110,95,l),
(110,35,o),
(68,36,o),
(44,36,c),
(44,0,l),
(183,0,l)
);
},
{
closed = 0;
nodes = (
(103,800,l),
(103,760,l)
);
},
{
closed = 0;
nodes = (
(103,40,l),
(103,0,l)
);
},
{
closed = 0;
nodes = (
(120,429,l),
(120,389,l)
);
}
);
};
layerId = m002;
shapes = (
{
closed = 1;
nodes = (
(247,36,l),
(211,36,o),
(183,43,o),
(183,95,c),
(183,736,l),
(183,774,o),
(218,772,o),
(247,772,c),
(247,800,l),
(44,800,l),
(44,772,l),
(74,772,o),
(110,774,o),
(110,738,c),
(110,95,l),
(110,43,o),
(80,36,o),
(44,36,c),
(44,0,l),
(247,0,l)
);
}
);
width = 300;
}
);
note = I;
unicode = (73,105);
},
{
glyphname = J;
lastChange = "2025-10-03 19:57:42 +0000";
layers = (
{
layerId = m01;
shapes = (
{
closed = 1;
nodes = (
(135,787,l),
(135,788,o),
(135,789,o),
(135,790,c),
(135,800,l),
(38,800,l),
(38,792,l),
(38,791,o),
(38,790,o),
(38,789,c),
(38,52,l),
(38,4,o),
(20,-44,o),
(-12,-83,cs),
(-15,-86,o),
(-18,-90,o),
(-21,-93,c),
(-12,-93,l),
(-12,-93,o),
(-60,-93,o),
(-12,-93,c),
(-11,-93,o),
(-9,-93,o),
(78,-93,c),
(118,-54,o),
(135,-1,o),
(135,52,c)
);
}
);
width = 173;
},
{
background = {
shapes = (
{
closed = 0;
nodes = (
(322,729,l),
(322,766,o),
(336,772,o),
(388,772,c),
(388,800,l),
(183,800,l),
(183,772,l),
(235,772,o),
(249,766,o),
(249,729,c)
);
}
);
};
layerId = m002;
shapes = (
{
closed = 1;
nodes = (
(321,729,l),
(321,778,o),
(366,772,o),
(388,772,c),
(388,800,l),
(183,800,l),
(183,772,l),
(221,772,o),
(248,772,o),
(248,733,c),
(253,217,l),
(253,96,o),
(247,9,o),
(156,9,cs),
(123,9,o),
(46,24,o),
(51,176,c),
(34,150,l),
(34,101,o),
(40,56,o),
(57,28,cs),
(91,-30,o),
(184,-46,o),
(251,-5,c),
(291,20,o),
(321,73,o),
(321,217,c)
);
}
);
width = 400;
}
);
note = J;
unicode = (74,106);
},
{
glyphname = K;
lastChange = "2025-10-03 19:57:42 +0000";
layers = (
{
layerId = m01;
shapes = (
{
closed = 1;
nodes = (
(133,11,l),
(133,13,o),
(133,16,o),
(133,18,c),
(133,782,l),
(133,784,o),
(133,785,o),
(133,787,c),
(133,800,l),
(37,800,l),
(37,787,l),
(37,785,o),
(37,784,o),
(37,782,c),
(37,17,l),
(37,15,o),
(37,12,o),
(37,10,c),
(37,0,l),
(133,0,l)
);
},
{
closed = 1;
nodes = (
(246,366,l),
(488,21,l),
(490,19,o),
(491,16,o),
(493,14,c),
(503,0,l),
(600,0,l),
(589,16,l),
(587,18,o),
(586,21,o),
(584,23,c),
(316,408,l),
(585,779,l),
(587,781,o),
(588,784,o),
(590,786,c),
(600,800,l),
(503,800,l),
(494,788,l),
(493,787,o),
(492,785,o),
(491,784,c),
(246,459,l),
(133,459,l),
(133,366,l)
);
}
);
width = 600;
},
{
background = {
shapes = (
{
closed = 1;
nodes = (
(219,25,l),
(190,25,o),
(154,42,o),
(154,82,c),
(154,800,l),
(15,800,l),
(15,772,l),
(24,771,o),
(81,779,o),
(81,740,c),
(81,96,l),
(81,40,o),
(47,36,o),
(15,36,c),
(15,0,l),
(219,0,l)
);
},
{
closed = 1;
nodes = (
(593,800,l),
(82,800,l),
(82,760,l),
(562,760,l),
(594,716,l),
(614,716,l)
);
},
{
closed = 1;
nodes = (
(525,564,l),
(489,564,l),
(489,502,o),
(483,429,o),
(416,429,c),
(82,429,l),
(82,391,l),
(416,391,l),
(494,391,o),
(489,308,o),
(489,284,c),
(525,284,l)
);
}
);
};
layerId = m002;
shapes = (
{
closed = 1;
nodes = (
(219,25,l),
(174,25,o),
(154,42,o),
(154,84,c),
(153,736,l),
(153,770,o),
(177,772,o),
(219,772,c),
(219,800,l),
(15,800,l),
(15,772,l),
(57,772,o),
(81,767,o),
(81,738,c),
(81,100,l),
(81,47,o),
(57,36,o),
(15,36,c),
(15,0,l),
(219,0,l)
);
},
{
closed = 1;
nodes = (
(265,389,l),
(442,114,l),
(466,65,o),
(487,34,o),
(395,34,c),
(395,-2,l),
(620,-3,l),
(620,35,l),
(573,35,o),
(551,57,o),
(531,82,c),
(314,411,l),
(514,730,l),
(536,766,o),
(543,773,o),
(576,773,c),
(576,801,l),
(386,800,l),
(386,774,l),
(394,774,o),
(471,772,o),
(446,722,c),
(265,434,l),
(133,434,l),
(133,389,l)
);
}
);
width = 620;
}
);
note = K;
unicode = (75,107);
},
{
glyphname = L;
lastChange = "2025-10-03 19:57:42 +0000";
layers = (
{
layerId = m01;
shapes = (
{
closed = 1;
nodes = (
(141,775,l),
(141,778,o),
(141,782,o),
(141,785,c),
(141,800,l),
(47,800,l),
(47,785,l),
(47,781,o),
(47,777,o),
(47,773,c),
(47,18,l),
(47,15,o),
(47,12,o),
(47,9,c),
(47,0,l),
(141,0,l)
);
},
{
closed = 1;
nodes = (
(534,82,l),
(534,94,l),
(400,94,o),
(267,94,o),
(133,94,c),
(133,0,l),
(534,0,l)
);
}
);
width = 600;
},
{
layerId = m002;
shapes = (
{
closed = 1;
nodes = (
(178,734,l),
(178,771,o),
(196,772,o),
(244,772,c),
(244,800,l),
(39,800,l),
(39,772,l),
(87,772,o),
(105,766,o),
(105,734,c),
(105,68,l),
(105,31,o),
(48,28,o),
(30,28,c),
(30,0,l),
(178,0,l)
);
},
{
closed = 1;
nodes = (
(607,136,l),
(599,165,l),
(545,-27,o),
(178,14,o),
(178,78,c),
(178,0,l),
(560,0,l)
);
}
);
width = 640;
}
);
note = L;
unicode = (76,108);
},
{
glyphname = M;
lastChange = "2025-10-03 19:57:42 +0000";
layers = (
{
layerId = m01;
shapes = (
{
closed = 1;
nodes = (
(493,800,l),
(385,120,l),
(363,120,l),
(249,800,l),
(24,800,l),
(24,787,l),
(24,783,o),
(24,780,o),
(24,776,c),
(24,19,l),
(24,16,o),
(24,12,o),
(24,9,c),
(24,0,l),
(118,0,l),
(118,11,l),
(118,14,o),
(118,16,o),
(118,19,c),
(118,686,l),
(170,686,l),
(275,0,l),
(467,0,l),
(572,686,l),
(624,686,l),
(624,29,l),
(624,24,o),
(624,20,o),
(624,15,c),
(624,0,l),
(718,0,l),
(718,15,l),
(718,19,o),
(718,22,o),
(718,26,c),
(718,763,l),
(718,769,o),
(718,774,o),
(718,780,c),
(718,800,l)
);
}
);
width = 750;
},
{
layerId = m002;
shapes = (
{
closed = 1;
nodes = (
(539,800,l),
(369,116,l),
(369,116,l),
(197,800,l),
(0,800,l),
(0,772,l),
(20,772,o),
(66,772,o),
(66,742,c),
(66,98,l),
(66,30,o),
(14,36,o),
(0,36,c),
(0,0,l),
(197,0,l),
(197,25,l),
(125,25,o),
(130,73,o),
(130,102,c),
(129,744,l),
(129,744,l),
(341,0,l),
(397,0,l),
(607,744,l),
(607,744,l),
(607,91,l),
(607,35,o),
(578,25,o),
(541,25,c),
(541,0,l),
(735,0,l),
(735,36,l),
(708,36,o),
(670,40,o),
(670,90,c),
(669,738,l),
(669,778,o),
(718,772,o),
(735,772,c),
(735,800,l)
);
}
);
width = 735;
}
);
note = M;
unicode = (77,109);
},
{
glyphname = N;
kernLeft = "750";
kernRight = "650";
lastChange = "2025-10-03 19:57:42 +0000";
layers = (
{
layerId = m01;
shapes = (
{
closed = 1;
nodes = (
(400,97,l),
(289,801,l),
(51,801,l),
(51,800,l),
(51,798,o),
(51,795,o),
(51,793,c),
(51,4,l),
(51,3,o),
(51,2,o),
(51,1,c),
(51,0,l),
(151,0,l),
(151,1,l),
(151,2,o),
(151,3,o),
(151,4,c),
(141,705,l),
(205,705,l),
(317,0,l),
(554,0,l),
(554,794,l),
(554,795,o),
(554,797,o),
(554,798,c),
(554,800,l),
(453,800,l),
(453,799,l),
(453,798,o),
(453,797,o),
(453,796,c),
(454,97,l)
);
}
);
width = 600;
},
{
background = {
shapes = (
{
closed = 0;
nodes = (
(533,429,l),
(533,729,l),
(533,766,o),
(547,772,o),
(599,772,c),
(599,800,l),
(394,800,l),
(394,772,l),
(446,772,o),
(460,766,o),
(460,729,c),
(461,94,l),
(461,32,o),
(411,36,o),
(395,36,c),
(395,0,l),
(602,0,l),
(602,36,l),
(593,36,o),
(534,32,o),
(534,94,c),
(533,391,l)
);
},
{
closed = 0;
nodes = (
(175,429,l),
(175,729,l),
(175,766,o),
(189,772,o),
(241,772,c),
(241,800,l),
(36,800,l),
(36,772,l),
(88,772,o),
(102,766,o),
(102,729,c),
(103,94,l),
(103,32,o),
(53,36,o),
(37,36,c),
(37,0,l),
(244,0,l),
(244,36,l),
(235,36,o),
(176,32,o),
(176,94,c),
(175,391,l)
);
}
);
};
layerId = m002;
shapes = (
{
closed = 1;
nodes = (
(525,56,l),
(190,800,l),
(30,800,l),
(30,772,l),
(72,772,o),
(96,774,o),
(96,729,c),
(97,94,l),
(97,35,o),
(53,36,o),
(31,36,c),
(31,0,l),
(225,0,l),
(225,36,l),
(183,36,o),
(157,52,o),
(157,94,c),
(156,730,l),
(156,730,l),
(492,0,l),
(585,0,l),
(584,735,l),
(584,776,o),
(627,772,o),
(650,772,c),
(650,800,l),
(458,800,l),
(458,772,l),
(492,772,o),
(524,775,o),
(524,731,c),
(525,56,l)
);
}
);
width = 680;
}
);
note = N;
unicode = (78,110);
},
{
glyphname = O;
lastChange = "2025-10-03 19:57:42 +0000";
layers = (
{
layerId = m01;
shapes = (
{
closed = 1;
nodes = (
(447,0,o),
(551,71,o),
(599,191,cs),
(624,249,o),
(635,322,o),
(635,404,cs),
(635,566,o),
(588,687,o),
(490,752,cs),
(441,784,o),
(387,800,o),
(325,800,cs),
(114,800,o),
(15,623,o),
(15,404,cs),
(15,196,o),
(125,0,o),
(325,0,cs)
);
},
{
closed = 1;
nodes = (
(202,104,o),
(104,205,o),
(104,404,cs),
(104,599,o),
(202,713,o),
(325,713,cs),
(450,713,o),
(547,599,o),
(547,404,cs),
(547,205,o),
(450,104,o),
(325,104,cs)
);
}
);
width = 650;
},
{
layerId = m002;
shapes = (
{
closed = 1;
nodes = (
(521,-13,o),
(626,72,o),
(675,194,cs),
(700,253,o),
(713,328,o),
(713,411,cs),
(713,576,o),
(641,690,o),
(541,756,cs),
(492,789,o),
(428,811,o),
(348,807,cs),
(90,794,o),
(17,513,o),
(17,411,cs),
(17,140,o),
(170,-13,o),
(374,-13,cs)
);
},
{
closed = 1;
nodes = (
(214,26,o),
(116,186,o),
(107,388,cs),
(99,580,o),
(196,771,o),
(363,771,cs),
(515,771,o),
(626,611,o),
(628,413,cs),
(630,152,o),
(509,21,o),
(378,23,cs)
);
}
);
width = 730;
}
);
note = O;
unicode = (79,111);
},
{
glyphname = P;
lastChange = "2025-10-03 19:57:42 +0000";
layers = (
{
layerId = m01;
shapes = (
{
closed = 1;
nodes = (
(148,724,o),
(151,724,o),
(153,724,c),
(322,724,ls),
(419,724,o),
(475,687,o),
(485,613,cs),
(498,512,o),
(433,470,o),
(337,470,cs),
(155,470,l),
(152,470,o),
(149,470,o),
(146,470,c),
(146,724,l)
);
},
{
closed = 1;
nodes = (
(146,0,l),
(146,9,l),
(146,12,o),
(146,14,o),
(146,17,c),
(146,391,l),
(386,391,l),
(536,394,o),
(584,513,o),
(576,617,cs),
(569,707,o),
(497,800,o),
(314,800,cs),
(52,800,l),
(52,785,l),
(52,781,o),
(52,777,o),
(52,773,c),
(52,22,l),
(52,19,o),
(52,16,o),
(52,13,c),
(52,0,l)
);
}
);
width = 630;
},
{
background = {
shapes = (
{
closed = 0;
nodes = (
(196,800,l),
(36,800,l),
(36,772,l),
(78,772,o),
(102,774,o),
(102,729,c),
(103,94,l),
(103,35,o),
(59,36,o),
(37,36,c),
(37,0,l),
(231,0,l),
(231,36,l),
(189,36,o),
(163,52,o),
(163,94,c),
(162,730,l),
(162,730,l)
);
}
);
};
layerId = m002;
shapes = (
{
closed = 1;
nodes = (
(162,741,o),
(161,750,o),
(170,750,c),
(308,750,ls),
(412,750,o),
(495,694,o),
(495,602,cs),
(495,531,o),
(473,440,o),
(323,440,cs),
(172,440,l),
(162,440,o),
(162,443,o),
(162,454,c),
(162,722,l)
);
},
{
closed = 1;
nodes = (
(231,0,l),
(231,36,l),
(198,36,o),
(163,43,o),
(163,102,c),
(163,391,l),
(372,391,l),
(522,394,o),
(570,513,o),
(562,617,cs),
(555,707,o),
(483,800,o),
(300,800,cs),
(23,800,l),
(23,772,l),
(59,772,o),
(89,774,o),
(89,732,c),
(90,102,l),
(90,31,o),
(38,36,o),
(24,36,c),
(24,0,l)
);
}
);
width = 600;
}
);
note = P;
unicode = (80,112);
},
{
glyphname = Q;
lastChange = "2025-10-03 19:57:42 +0000";
layers = (
{
layerId = m01;
shapes = (
{
closed = 1;
nodes = (
(317,270,l),
(420,139,l),
(389,115,o),
(349,105,o),
(310,105,cs),
(185,105,o),
(85,208,o),
(85,412,cs),
(85,612,o),
(185,728,o),
(310,728,cs),
(437,728,o),
(536,612,o),
(536,412,cs),
(536,312,o),
(530,234,o),
(487,179,c),
(423,270,l)
);
},
{
closed = 1;
nodes = (
(520,0,l),
(631,0,l),
(543,112,l),
(601,188,o),
(626,293,o),
(626,412,cs),
(626,578,o),
(578,702,o),
(478,768,cs),
(428,801,o),
(373,818,o),
(310,818,cs),
(188,818,o),
(81,748,o),
(31,627,cs),
(6,567,o),
(-6,495,o),
(-6,412,cs),
(-6,244,o),
(43,119,o),
(143,52,cs),
(267,-28,o),
(398,-11,o),
(484,48,c)
);
}
);
width = 630;
},
{
background = {
shapes = (
{
closed = 1;
nodes = (
(510,-13,o),
(615,72,o),
(664,194,c),
(689,253,o),
(702,328,o),
(702,411,c),
(702,576,o),
(630,690,o),
(530,756,c),
(481,789,o),
(417,811,o),
(337,807,c),
(79,794,o),
(6,513,o),
(6,411,c),
(6,140,o),
(159,-13,o),
(363,-13,c)
);
},
{
closed = 1;
nodes = (
(203,26,o),
(105,186,o),
(96,388,c),
(88,580,o),
(185,771,o),
(352,771,c),
(504,771,o),
(615,611,o),
(617,413,c),
(619,152,o),
(494,21,o),
(367,23,c)
);
}
);
};
layerId = m002;
shapes = (
{
closed = 1;
nodes = (
(447,270,l),
(550,133,l),
(482,28,o),
(395,21,o),
(345,26,cs),
(194,41,o),
(91,208,o),
(91,412,cs),
(91,612,o),
(216,771,o),
(352,771,cs),
(489,771,o),
(612,628,o),
(617,420,cs),
(618,381,o),
(625,258,o),
(573,169,c),
(500,270,l)
);
},
{
closed = 1;
nodes = (
(650,0,l),
(699,0,l),
(618,110,l),
(681,196,o),
(702,292,o),
(702,411,cs),
(702,577,o),
(635,675,o),
(548,746,cs),
(498,786,o),
(434,807,o),
(353,807,cs),
(221,807,o),
(128,726,o),
(73,635,cs),
(42,583,o),
(10,494,o),
(6,411,cs),
(-1,266,o),
(66,125,o),
(137,68,cs),
(283,-49,o),
(475,-34,o),
(591,81,c)
);
}
);
width = 710;
}
);
note = Q;
unicode = (81,113);
},
{
glyphname = R;
lastChange = "2025-10-03 19:57:42 +0000";
layers = (
{
layerId = m01;
shapes = (
{
closed = 1;
nodes = (
(177,724,o),
(179,724,o),
(181,724,c),
(351,724,ls),
(448,724,o),
(504,687,o),
(514,613,cs),
(527,512,o),
(462,470,o),
(366,470,cs),
(182,470,l),
(180,470,o),
(177,470,o),
(175,470,c),
(175,724,l)
);
},
{
closed = 1;
nodes = (
(566,396,o),
(613,514,o),
(605,617,cs),
(598,707,o),
(526,800,o),
(343,800,cs),
(81,800,l),
(81,795,l),
(81,792,o),
(81,790,o),
(81,787,c),
(81,15,l),
(81,12,o),
(81,9,o),
(81,6,c),
(81,0,l),
(175,0,l),
(175,3,l),
(175,6,o),
(175,9,o),
(175,12,c),
(175,391,l),
(305,391,l),
(539,24,l),
(541,21,o),
(543,17,o),
(545,14,c),
(555,0,l),
(668,0,l),
(657,18,l),
(655,21,o),
(654,23,o),
(652,26,c),
(418,391,l)
);
}
);
width = 630;
},
{
background = {
shapes = (
{
closed = 1;
nodes = (
(229,25,l),
(184,25,o),
(164,42,o),
(164,84,c),
(163,736,l),
(163,770,o),
(187,772,o),
(229,772,c),
(229,800,l),
(25,800,l),
(25,772,l),
(67,772,o),
(91,767,o),
(91,738,c),
(91,100,l),
(91,47,o),
(67,36,o),
(25,36,c),
(25,0,l),
(229,0,l)
);
},
{
closed = 1;
nodes = (
(275,389,l),
(452,114,l),
(476,65,o),
(497,34,o),
(405,34,c),
(405,-2,l),
(630,-3,l),
(630,35,l),
(583,35,o),
(561,57,o),
(541,82,c),
(324,411,l),
(524,730,l),
(544,760,o),
(553,763,o),
(586,763,c),
(586,801,l),
(396,800,l),
(396,764,l),
(404,764,o),
(481,762,o),
(456,722,c),
(275,434,l),
(143,434,l),
(143,389,l)
);
}
);
};
layerId = m002;
shapes = (
{
closed = 1;
nodes = (
(164,746,o),
(164,750,o),
(170,750,c),
(351,750,ls),
(433,750,o),
(516,695,o),
(516,606,cs),
(516,484,o),
(462,438,o),
(366,438,cs),
(171,438,l),
(168,438,o),
(164,439,o),
(164,445,c),
(164,742,l)
);
},
{
closed = 1;
nodes = (
(544,391,o),
(580,514,o),
(572,617,cs),
(565,707,o),
(493,800,o),
(343,800,cs),
(25,800,l),
(25,772,l),
(65,772,o),
(91,772,o),
(91,731,c),
(91,90,l),
(91,37,o),
(46,36,o),
(25,36,c),
(25,0,l),
(229,0,l),
(229,25,l),
(213,25,o),
(164,24,o),
(164,87,c),
(164,391,l),
(275,389,l),
(452,114,l),
(511,25,o),
(426,34,o),
(405,34,c),
(405,0,l),
(630,0,l),
(630,35,l),
(580,35,o),
(550,68,o),
(548,72,c),
(337,391,l)
);
}
);
width = 670;
}
);
note = R;
unicode = (82,114);
},
{
glyphname = S;
lastChange = "2025-10-03 19:57:42 +0000";
layers = (
{
layerId = m01;
shapes = (
{
closed = 1;
nodes = (
(525,-15,o),
(636,69,o),
(636,216,cs),
(636,301,o),
(592,345,o),
(540,381,cs),
(510,401,o),
(454,419,o),
(417,434,cs),
(331,468,ls),
(280,488,o),
(162,513,o),
(162,613,cs),
(162,681,o),
(235,741,o),
(321,741,cs),
(402,741,o),
(454,714,o),
(487,665,cs),
(505,639,o),
(517,612,o),
(517,574,c),
(604,574,l),
(600,661,o),
(559,737,o),
(479,782,cs),
(439,803,o),
(387,815,o),
(325,815,cs),
(175,815,o),
(67,739,o),
(67,603,cs),
(67,509,o),
(117,456,o),
(188,422,cs),
(223,404,o),
(266,389,o),
(305,375,cs),
(376,349,ls),
(461,318,o),
(533,284,o),
(533,205,cs),
(533,126,o),
(463,82,o),
(360,82,cs),
(264,82,o),
(188,113,o),
(155,176,cs),
(140,205,o),
(130,235,o),
(129,267,c),
(30,267,l),
(33,223,o),
(43,181,o),
(61,144,cs),
(66,134,o),
(71,125,o),
(77,116,c),
(127,37,o),
(219,-15,o),
(354,-15,cs)
);
}
);
width = 646;
},
{
background = {
shapes = (
{
closed = 1;
nodes = (
(483,-10,o),
(590,72,o),
(590,211,cs),
(590,374,o),
(463,410,o),
(343,451,cs),
(242,485,o),
(147,506,o),
(147,614,cs),
(147,707,o),
(213,752,o),
(301,752,cs),
(426,752,o),
(485,680,o),
(543,557,c),
(569,569,l),
(506,790,l),
(502,790,l),
(476,771,ls),
(466,764,o),
(459,762,o),
(449,762,cs),
(429,762,o),
(375,790,o),
(295,790,cs),
(156,790,o),
(64,708,o),
(64,586,cs),
(64,433,o),
(188,399,o),
(298,360,cs),
(404,322,o),
(504,299,o),
(504,183,cs),
(504,83,o),
(439,28,o),
(332,28,cs),
(188,28,o),
(124,110,o),
(71,223,c),
(45,211,l),
(108,-10,l),
(112,-10,l),
(137,10,ls),
(147,18,o),
(153,20,o),
(160,20,cs),
(182,20,o),
(243,-10,o),
(330,-10,cs)
);
}
);
};
layerId = m002;
shapes = (
{
closed = 1;
nodes = (
(478,-19,o),
(578,74,o),
(578,210,cs),
(578,299,o),
(536,346,o),
(488,379,cs),
(454,400,o),
(408,417,o),
(368,431,cs),
(256,471,ls),
(233,479,o),
(64,522,o),
(64,627,cs),
(64,720,o),
(165,784,o),
(257,784,cs),
(328,784,o),
(395,758,o),
(442,707,cs),
(465,682,o),
(514,629,o),
(528,571,c),
(557,583,l),
(529,675,o),
(520,704,o),
(488,813,c),
(421,745,o),
(389,816,o),
(256,813,cs),
(98,809,o),
(11,731,o),
(11,600,cs),
(11,523,o),
(49,462,o),
(125,416,cs),
(164,395,o),
(211,379,o),
(254,364,cs),
(325,339,ls),
(339,334,o),
(503,298,o),
(513,199,cs),
(529,67,o),
(405,2,o),
(293,2,cs),
(190,2,o),
(107,76,o),
(73,127,cs),
(54,156,o),
(35,201,o),
(19,235,c),
(-9,222,l),
(14,146,o),
(32,63,o),
(57,-20,c),
(62,-34,o),
(86,17,o),
(127,8,cs),
(176,-3,o),
(239,-19,o),
(292,-19,cs)
);
}
);
width = 580;
}
);
note = S;
unicode = (83,115);
},
{
glyphname = T;
lastChange = "2025-10-03 19:57:42 +0000";
layers = (
{
layerId = m01;
shapes = (
{
closed = 1;
nodes = (
(347,16,l),
(347,18,o),
(347,20,o),
(347,22,c),
(347,706,l),
(358,706,l),
(419,706,o),
(479,706,o),
(540,706,c),
(553,706,l),
(568,706,l),
(568,800,l),
(30,800,l),
(30,706,l),
(41,706,l),
(80,706,l),
(134,706,o),
(187,706,o),
(241,706,c),
(251,706,l),
(251,23,l),
(251,20,o),
(251,17,o),
(251,14,c),
(251,0,l),
(347,0,l)
);
}
);
width = 588;
},
{
background = {
shapes = (
{
closed = 1;
nodes = (
(455,0,l),
(455,36,l),
(410,36,ls),
(362,36,o),
(339,56,o),
(339,97,cs),
(339,703,ls),
(339,744,o),
(362,764,o),
(410,764,cs),
(427,764,ls),
(544,764,o),
(577,653,o),
(593,592,c),
(613,604,l),
(572,800,l),
(35,800,l),
(-5,604,l),
(15,592,l),
(30,653,o),
(64,764,o),
(181,764,cs),
(198,764,ls),
(246,764,o),
(268,744,o),
(268,703,cs),
(268,97,ls),
(268,57,o),
(246,36,o),
(198,36,cs),
(153,36,l),
(153,0,l)
);
}
);
};
layerId = m002;
shapes = (
{
closed = 1;
nodes = (
(491,36,l),
(448,36,o),
(375,28,o),
(375,89,c),
(375,630,l),
(375,721,ls),
(375,787,o),
(569,771,o),
(611,664,c),
(639,592,l),
(659,604,l),
(618,800,l),
(61,800,l),
(21,604,l),
(41,592,l),
(70,664,l),
(112,771,o),
(304,799,o),
(304,721,cs),
(304,630,l),
(304,89,l),
(304,28,o),
(232,36,o),
(189,36,c),
(189,0,l),
(491,0,l)
);
}
);
width = 680;
}
);
note = T;
unicode = (84,116);
},
{
glyphname = U;
lastChange = "2025-10-03 19:57:42 +0000";
layers = (
{
layerId = m01;
shapes = (
{
closed = 1;
nodes = (
(514,-15,o),
(599,110,o),
(599,337,cs),
(599,792,l),
(599,794,o),
(599,795,o),
(599,797,c),
(599,800,l),
(498,800,l),
(498,796,l),
(498,795,o),
(498,793,o),
(498,792,c),
(498,332,ls),
(498,156,o),
(442,79,o),
(318,79,cs),
(193,79,o),
(137,156,o),
(137,332,cs),
(137,793,l),
(137,794,o),
(137,796,o),
(137,797,c),
(137,800,l),
(32,800,l),
(32,797,l),
(32,796,o),
(32,794,o),
(32,793,c),
(32,337,ls),
(32,110,o),
(120,-15,o),
(316,-15,cs)
);
}
);
width = 630;
},
{
background = {
shapes = (
{
closed = 1;
nodes = (
(508,-10,o),
(585,110,o),
(585,238,cs),
(585,685,l),
(543,685,l),
(543,238,ls),
(543,133,o),
(503,38,o),
(338,38,cs),
(196,38,o),
(140,118,o),
(140,245,cs),
(140,685,l),
(52,685,l),
(52,245,ls),
(52,87,o),
(135,-10,o),
(315,-10,cs)
);
},
{
closed = 0;
nodes = (
(139,729,l),
(139,766,o),
(153,772,o),
(205,772,c),
(205,800,l),
(0,800,l),
(0,772,l),
(52,772,o),
(66,766,o),
(66,729,c)
);
},
{
closed = 0;
nodes = (
(576,729,l),
(576,771,o),
(592,772,o),
(642,772,c),
(642,800,l),
(437,800,l),
(437,772,l),
(487,772,o),
(503,771,o),
(503,729,c)
);
}
);
};
layerId = m002;
shapes = (
{
attr = {
strokePos = 1;
};
closed = 1;
nodes = (
(598,-15,o),
(605,105,o),
(605,334,c),
(605,729,ls),
(605,778,o),
(629,772,o),
(671,772,c),
(671,800,l),
(466,800,l),
(466,772,l),
(513,772,o),
(532,776,o),
(532,729,cs),
(532,260,ls),
(532,90,o),
(485,23,o),
(347,23,c),
(205,23,o),
(138,90,o),
(138,260,c),
(138,729,ls),
(138,777,o),
(158,772,o),
(204,772,c),
(204,800,l),
(-1,800,l),
(-1,772,l),
(44,772,o),
(65,778,o),
(65,730,cs),
(65,334,l),
(65,105,o),
(100,-15,o),
(349,-15,c)
);
}
);
width = 670;
}
);
note = U;
unicode = (85,117);
},
{
glyphname = V;
lastChange = "2025-10-03 19:57:42 +0000";
layers = (
{
layerId = m01;
shapes = (
{
closed = 1;
nodes = (
(689,784,l),
(690,786,o),
(690,789,o),
(691,791,c),
(694,800,l),
(595,800,l),
(593,793,l),
(592,791,o),
(592,789,o),
(591,787,c),
(372,86,l),
(328,86,l),
(107,791,l),
(106,793,o),
(106,794,o),
(105,796,c),
(104,800,l),
(6,800,l),
(7,795,l),
(8,793,o),
(8,791,o),
(9,789,c),
(256,0,l),
(444,0,l)
);
}
);
width = 700;
},
{
background = {
shapes = (
{
closed = 0;
nodes = (
(670,730,l),
(690,760,o),
(699,763,o),
(732,763,c),
(732,801,l),
(542,800,l),
(542,764,l),
(550,764,o),
(627,762,o),
(602,722,c)
);
},
{
closed = 0;
nodes = (
(132,722,l),
(107,762,o),
(184,764,o),
(192,764,c),
(192,800,l),
(2,801,l),
(2,763,l),
(35,763,o),
(44,760,o),
(64,730,c)
);
}
);
};
layerId = m002;
shapes = (
{
closed = 1;
nodes = (
(712,730,l),
(720,750,o),
(730,773,o),
(774,773,c),
(774,801,l),
(606,800,l),
(606,774,l),
(641,774,o),
(679,770,o),
(666,722,c),
(380,31,l),
(380,31,l),
(170,724,l),
(157,762,o),
(228,764,o),
(254,764,c),
(254,800,l),
(26,801,l),
(26,772,l),
(34,772,o),
(74,769,o),
(88,730,c),
(314,0,l),
(408,0,l)
);
}
);
width = 800;
}
);
note = V;
unicode = (86,118);
},
{
glyphname = W;
kernRight = "750";
lastChange = "2025-10-03 19:57:42 +0000";
layers = (
{
layerId = m01;
shapes = (
{
closed = 1;
nodes = (
(594,0,l),
(738,763,l),
(739,768,o),
(740,774,o),
(741,779,c),
(745,800,l),
(648,800,l),
(645,781,l),
(644,776,o),
(643,770,o),
(642,765,c),
(554,180,l),
(475,767,l),
(474,771,o),
(474,776,o),
(473,780,c),
(470,800,l),
(273,800,l),
(269,779,l),
(268,775,o),
(268,771,o),
(267,767,c),
(186,180,l),
(99,764,l),
(98,771,o),
(96,778,o),
(95,785,c),
(92,800,l),
(-5,800,l),
(-2,784,l),
(-1,776,o),
(1,769,o),
(2,761,c),
(149,-1,l),
(246,-1,l),
(351,708,l),
(392,708,l),
(497,-1,l)
);
}
);
width = 740;
},
{
background = {
shapes = (
{
closed = 1;
nodes = (
(690,723,l),
(690,715,o),
(688,705,o),
(685,692,cs),
(549,152,l),
(405,703,ls),
(403,709,o),
(402,715,o),
(402,721,c),
(321,713,l),
(342,641,l),
(219,152,l),
(75,703,l),
(73,709,o),
(72,715,o),
(72,721,c),
(-10,713,l),
(193,-7,l),
(209,-7,l),
(361,570,l),
(524,-7,l),
(540,-7,l),
(723,692,l)
);
},
{
closed = 0;
nodes = (
(130,734,l),
(130,771,o),
(148,772,o),
(196,772,c),
(196,800,l),
(-9,800,l),
(-9,772,l),
(39,772,o),
(57,766,o),
(57,734,c)
);
},
{
closed = 0;
nodes = (
(439,734,l),
(439,771,o),
(457,772,o),
(505,772,c),
(505,800,l),
(300,800,l),
(300,772,l),
(348,772,o),
(366,766,o),
(366,734,c)
);
},
{
closed = 0;
nodes = (
(763,734,l),
(763,771,o),
(781,772,o),
(829,772,c),
(829,800,l),
(624,800,l),
(624,772,l),
(672,772,o),
(690,766,o),
(690,734,c)
);
}
);
};
layerId = m002;
shapes = (
{
closed = 1;
nodes = (
(621,1,l),
(822,723,ls),
(836,775,o),
(856,772,o),
(888,772,c),
(888,800,l),
(707,800,l),
(707,772,l),
(729,772,o),
(794,774,o),
(780,723,cs),
(610,106,l),
(531,730,ls),
(526,772,o),
(552,772,o),
(576,772,c),
(576,800,l),
(378,800,l),
(378,772,l),
(396,772,o),
(446,777,o),
(432,716,cs),
(290,101,l),
(138,734,ls),
(129,772,o),
(187,772,o),
(207,772,c),
(207,800,l),
(-8,800,l),
(-8,772,l),
(14,772,o),
(54,770,o),
(65,723,cs),
(241,0,l),
(323,0,l),
(478,746,l),
(478,746,l),
(573,0,l)
);
}
);
width = 880;
}
);
note = W;
unicode = (87,119);
},
{
glyphname = X;
lastChange = "2025-10-03 19:57:42 +0000";
layers = (
{
layerId = m01;
shapes = (
{
closed = 1;
nodes = (
(124,22,l),
(126,26,o),
(128,30,o),
(130,34,c),
(299,353,l),
(329,353,l),
(492,23,l),
(494,20,o),
(495,16,o),
(497,13,c),
(504,0,l),
(624,0,l),
(615,18,l),
(612,23,o),
(610,27,o),
(607,32,c),
(390,427,l),
(576,781,l),
(578,784,o),
(579,788,o),
(581,791,c),
(586,800,l),
(480,800,l),
(473,787,l),
(471,783,o),
(468,779,o),
(466,775,c),
(323,504,l),
(303,504,l),
(161,772,l),
(159,776,o),
(156,780,o),
(154,784,c),
(146,800,l),
(41,800,l),
(53,777,l),
(56,772,o),
(58,766,o),
(61,761,c),
(235,427,l),
(21,36,l),
(19,32,o),
(16,27,o),
(14,23,c),
(1,0,l),
(112,0,l)
);
}
);
width = 650;
},
{
background = {
shapes = (
{
closed = 0;
nodes = (
(557,729,l),
(579,765,o),
(586,772,o),
(619,772,c),
(619,800,l),
(429,799,l),
(429,773,l),
(437,773,o),
(514,771,o),
(489,721,c)
);
},
{
closed = 0;
nodes = (
(557,729,l),
(579,765,o),
(586,772,o),
(619,772,c),
(619,800,l),
(429,799,l),
(429,773,l),
(437,773,o),
(514,771,o),
(489,721,c)
);
},
{
closed = 0;
nodes = (
(150,721,l),
(125,771,o),
(202,773,o),
(210,773,c),
(210,799,l),
(20,800,l),
(20,772,l),
(53,772,o),
(60,765,o),
(82,729,c)
);
},
{
closed = 0;
nodes = (
(82,69,l),
(60,33,o),
(53,26,o),
(20,26,c),
(20,-2,l),
(210,-1,l),
(210,25,l),
(202,25,o),
(125,27,o),
(150,77,c)
);
},
{
closed = 0;
nodes = (
(82,69,l),
(60,33,o),
(53,26,o),
(20,26,c),
(20,-2,l),
(210,-1,l),
(210,25,l),
(202,25,o),
(125,27,o),
(150,77,c)
);
},
{
closed = 0;
nodes = (
(489,77,l),
(514,27,o),
(437,25,o),
(429,25,c),
(429,-1,l),
(619,-2,l),
(619,26,l),
(586,26,o),
(579,33,o),
(557,69,c)
);
}
);
};
layerId = m002;
shapes = (
{
closed = 1;
nodes = (
(174,25,l),
(166,25,o),
(88,21,o),
(114,77,c),
(308,411,l),
(308,411,l),
(515,77,l),
(541,23,o),
(457,25,o),
(455,25,c),
(455,-1,l),
(645,-2,l),
(645,26,l),
(620,26,o),
(608,29,o),
(583,69,c),
(345,437,l),
(522,729,l),
(545,772,o),
(563,772,o),
(584,772,c),
(584,800,l),
(394,799,l),
(394,773,l),
(410,773,o),
(481,764,o),
(454,721,c),
(309,454,l),
(309,454,l),
(166,721,l),
(141,771,o),
(218,773,o),
(226,773,c),
(226,800,l),
(36,800,l),
(36,772,l),
(43,772,o),
(74,777,o),
(98,729,c),
(270,437,l),
(46,69,l),
(16,19,o),
(3,26,o),
(-16,26,c),
(-16,-2,l),
(174,-1,l)
);
}
);
width = 630;
}
);
note = X;
unicode = (88,120);
},
{
glyphname = Y;
lastChange = "2025-10-03 19:57:42 +0000";
layers = (
{
layerId = m01;
shapes = (
{
closed = 1;
nodes = (
(235,0,l),
(235,4,l),
(235,7,o),
(235,9,o),
(235,12,c),
(231,405,l),
(24,774,l),
(22,777,o),
(20,781,o),
(18,784,c),
(9,800,l),
(115,800,l),
(121,788,l),
(123,784,o),
(125,780,o),
(127,776,c),
(272,483,l),
(291,483,l),
(434,770,l),
(436,775,o),
(439,779,o),
(441,784,c),
(449,800,l),
(555,800,l),
(546,785,l),
(543,779,o),
(539,774,o),
(536,768,c),
(328,405,l),
(328,11,l),
(328,9,o),
(328,7,o),
(328,5,c),
(328,0,l)
);
}
);
width = 550;
},
{
background = {
shapes = (
{
closed = 0;
nodes = (
(491,729,l),
(517,778,o),
(539,772,o),
(553,772,c),
(553,800,l),
(363,799,l),
(363,773,l),
(379,773,o),
(450,764,o),
(423,721,c)
);
},
{
closed = 0;
nodes = (
(135,721,l),
(110,771,o),
(187,773,o),
(195,773,c),
(195,800,l),
(5,800,l),
(5,772,l),
(12,772,o),
(43,777,o),
(67,729,c)
);
},
{
closed = 0;
nodes = (
(244,64,l),
(244,26,o),
(209,28,o),
(180,28,c),
(180,0,l),
(383,0,l),
(383,28,l),
(353,28,o),
(317,26,o),
(317,62,c)
);
}
);
};
layerId = m002;
shapes = (
{
closed = 1;
nodes = (
(201,0,l),
(201,28,l),
(239,28,o),
(265,32,o),
(265,64,c),
(265,405,l),
(58,729,l),
(35,775,o),
(9,772,o),
(-4,772,c),
(-4,800,l),
(186,800,l),
(186,773,l),
(171,773,o),
(101,771,o),
(126,721,c),
(301,438,l),
(301,438,l),
(474,721,l),
(502,767,o),
(419,774,o),
(414,774,c),
(414,800,l),
(604,800,l),
(604,772,l),
(589,772,o),
(563,774,o),
(542,729,c),
(338,405,l),
(338,62,l),
(338,29,o),
(366,28,o),
(404,28,c),
(404,0,l)
);
}
);
width = 600;
}
);
note = Y;
unicode = (89,121);
},
{
glyphname = Z;
lastChange = "2025-10-03 19:57:42 +0000";
layers = (
{
layerId = m01;
shapes = (
{
closed = 1;
nodes = (
(581,97,l),
(568,97,l),
(424,97,o),
(279,97,o),
(135,97,c),
(573,702,l),
(573,800,l),
(47,800,l),
(47,702,l),
(64,702,l),
(195,702,o),
(326,702,o),
(457,702,c),
(19,97,l),
(19,1,l),
(581,1,l)
);
}
);
width = 600;
},
{
background = {
shapes = (
{
closed = 1;
nodes = (
(20,0,l)
);
},
{
closed = 1;
nodes = (
(625,136,l),
(617,165,l),
(563,-27,o),
(20,14,o),
(20,78,c),
(20,0,l),
(578,0,l)
);
},
{
closed = 1;
nodes = (
(576,800,l)
);
},
{
closed = 1;
nodes = (
(20,664,l),
(28,635,l),
(82,827,o),
(576,786,o),
(576,722,c),
(576,800,l),
(67,800,l)
);
}
);
};
layerId = m002;
shapes = (
{
closed = 1;
nodes = (
(641,136,l),
(633,165,l),
(583,5,o),
(235,8,o),
(116,66,c),
(640,800,l),
(640,800,l),
(120,800,l),
(76,664,l),
(83,635,l),
(141,800,o),
(412,787,o),
(522,760,c),
(19,58,l),
(29,0,l),
(599,1,l)
);
}
);
width = 660;
}
);
note = Z;
unicode = (90,122);
},
{
glyphname = zero;
lastChange = "2024-04-12 12:34:27 +0000";
layers = (
{
layerId = m01;
shapes = (
{
closed = 1;
nodes = (
(482,-10,o),
(577,161,o),
(577,395,cs),
(577,627,o),
(482,800,o),
(302,800,cs),
(123,800,o),
(27,627,o),
(27,395,cs),
(27,161,o),
(123,-10,o),
(302,-10,cs)
);
},
{
closed = 1;
nodes = (
(170,74,o),
(116,187,o),
(116,405,cs),
(116,615,o),
(178,709,o),
(302,709,cs),
(437,709,o),
(489,594,o),
(489,385,cs),
(489,174,o),
(429,74,o),
(304,74,cs)
);
}
);
width = 605;
},
{
layerId = m002;
shapes = (
{
closed = 1;
nodes = (
(493,-10,o),
(594,161,o),
(594,395,cs),
(594,627,o),
(493,800,o),
(301,800,cs),
(110,800,o),
(8,627,o),
(8,395,cs),
(8,161,o),
(110,-10,o),
(301,-10,cs)
);
},
{
closed = 1;
nodes = (
(161,25,o),
(103,187,o),
(103,405,cs),
(103,615,o),
(170,765,o),
(301,765,cs),
(444,765,o),
(500,594,o),
(500,385,cs),
(500,174,o),
(435,25,o),
(303,25,cs)
);
}
);
width = 600;
}
);
unicode = 48;
},
{
glyphname = one;
lastChange = "2024-04-12 12:39:29 +0000";
layers = (
{
layerId = m01;
shapes = (
{
closed = 1;
nodes = (
(199,94,ls),
(199,94,o),
(37,94,o),
(37,94,cs),
(37,94,l),
(37,0,l),
(464,0,l),
(464,94,l),
(464,94,ls),
(464,94,o),
(293,94,o),
(293,94,cs),
(293,800,l),
(202,800,l),
(202,800,o),
(98,730,o),
(98,730,cs),
(98,730,l),
(98,672,l),
(199,672,l)
);
}
);
width = 500;
},
{
layerId = m002;
shapes = (
{
closed = 1;
nodes = (
(279,96,ls),
(279,36,o),
(184,35,o),
(120,35,cs),
(92,35,l),
(92,0,l),
(533,0,l),
(533,35,l),
(516,35,ls),
(452,35,o),
(352,36,o),
(352,96,cs),
(352,800,l),
(313,800,l),
(313,736,o),
(289,668,o),
(240,668,cs),
(196,668,l),
(167,633,l),
(279,633,l)
);
}
);
width = 600;
}
);
unicode = 49;
},
{
glyphname = two;
lastChange = "2024-04-12 13:52:25 +0000";
layers = (
{
background = {
shapes = (
{
closed = 1;
nodes = (
(579,0,l),
(579,98,l),
(158,98,l),
(160,107,l),
(188,188,o),
(285,247,o),
(359,297,cs),
(466,364,o),
(553,414,o),
(553,559,cs),
(553,698,o),
(459,800,o),
(313,800,cs),
(235,800,o),
(167,774,o),
(123,722,cs),
(80,674,o),
(57,611,o),
(57,523,c),
(156,523,l),
(156,589,o),
(169,631,o),
(196,664,cs),
(223,696,o),
(257,712,o),
(305,712,cs),
(396,712,o),
(453,649,o),
(453,557,cs),
(453,467,o),
(401,427,o),
(312,371,cs),
(244,326,o),
(170,281,o),
(116,215,cs),
(73,162,o),
(44,95,o),
(40,0,c)
);
}
);
};
layerId = m01;
shapes = (
{
closed = 1;
nodes = (
(579,0,l),
(579,98,l),
(579,98,l),
(579,98,o),
(262,95,o),
(158,98,cs),
(158,98,o),
(179,179,o),
(264,231,c),
(438,352,o),
(555,400,o),
(555,550,cs),
(555,684,o),
(475,800,o),
(315,800,cs),
(146,800,o),
(51,681,o),
(57,523,c),
(57,523,l),
(156,523,l),
(156,523,l),
(151,683,o),
(246,717,o),
(314,711,cs),
(443,700,o),
(458,598,o),
(452,538,cs),
(434,344,o),
(37,329,o),
(40,0,cs),
(40,0,l)
);
}
);
width = 600;
},
{
background = {
shapes = (
{
closed = 0;
nodes = (
(16,58,l),
(26,0,l),
(596,1,l),
(638,136,l),
(630,165,l),
(580,5,o),
(232,8,o),
(113,66,c)
);
}
);
};
layerId = m002;
shapes = (
{
closed = 1;
nodes = (
(562,1,l),
(604,136,l),
(596,165,l),
(551,58,o),
(403,23,o),
(283,32,cs),
(144,42,o),
(126,59,o),
(126,68,c),
(126,102,o),
(563,355,o),
(563,570,cs),
(563,704,o),
(475,800,o),
(315,800,cs),
(146,800,o),
(160,650,o),
(76,684,c),
(60,676,l),
(134,574,l),
(173,669,l),
(212,752,o),
(259,757,o),
(327,754,cs),
(427,749,o),
(488,687,o),
(488,570,cs),
(488,347,o),
(137,137,o),
(28,35,c),
(28,0,l)
);
}
);
width = 600;
}
);
unicode = 50;
},
{
glyphname = three;
lastChange = "2024-04-12 13:56:53 +0000";
layers = (
{
background = {
shapes = (
{
closed = 1;
nodes = (
(458,-16,o),
(571,61,o),
(571,200,cs),
(571,292,o),
(527,355,o),
(428,381,c),
(428,384,l),
(498,407,o),
(546,453,o),
(546,533,cs),
(546,656,o),
(440,729,o),
(306,729,cs),
(147,729,o),
(52,634,o),
(51,500,c),
(144,500,l),
(145,589,o),
(203,654,o),
(303,654,cs),
(386,654,o),
(452,609,o),
(452,534,cs),
(452,460,o),
(397,415,o),
(291,415,cs),
(247,415,l),
(247,341,l),
(292,341,ls),
(407,341,o),
(472,295,o),
(472,208,cs),
(472,111,o),
(405,63,o),
(310,63,cs),
(195,63,o),
(125,126,o),
(122,231,c),
(28,231,l),
(29,152,o),
(60,90,o),
(112,48,cs),
(163,6,o),
(233,-16,o),
(313,-16,cs)
);
},
{
closed = 1;
nodes = (
(458,-16,o),
(571,61,o),
(571,200,cs),
(571,292,o),
(527,355,o),
(428,381,c),
(428,384,l),
(498,407,o),
(546,453,o),
(546,533,cs),
(546,656,o),
(440,729,o),
(306,729,cs),
(147,729,o),
(52,634,o),
(51,500,c),
(144,500,l),
(145,589,o),
(203,654,o),
(303,654,cs),
(386,654,o),
(452,609,o),
(452,534,cs),
(452,460,o),
(397,415,o),
(291,415,cs),
(247,415,l),
(247,341,l),
(292,341,ls),
(407,341,o),
(472,295,o),
(472,208,cs),
(472,111,o),
(405,63,o),
(310,63,cs),
(195,63,o),
(125,126,o),
(122,231,c),
(28,231,l),
(29,152,o),
(60,90,o),
(112,48,cs),
(163,6,o),
(233,-16,o),
(313,-16,cs)
);
}
);
};
layerId = m01;
shapes = (
{
closed = 1;
nodes = (
(600,339,o),
(531,385,o),
(439,413,c),
(439,417,l),
(499,439,o),
(557,489,o),
(564,558,cs),
(576,700,o),
(471,800,o),
(317,800,cs),
(40,800,o),
(51,549,o),
(51,549,c),
(51,549,l),
(144,549,l),
(144,549,l),
(140,628,o),
(200,722,o),
(306,718,cs),
(410,713,o),
(464,662,o),
(464,586,cs),
(464,470,o),
(411,456,o),
(308,456,cs),
(247,456,l),
(246,375,l),
(302,375,ls),
(427,375,o),
(485,314,o),
(485,229,cs),
(485,110,o),
(406,66,o),
(297,71,cs),
(204,74,o),
(127,133,o),
(122,255,c),
(28,255,l),
(34,89,o),
(146,-16,o),
(307,-16,cs),
(481,-16,o),
(579,78,o),
(588,187,cs)
);
}
);
width = 600;
},
{
background = {
shapes = (
{
closed = 0;
nodes = (
(563,570,ls),
(563,704,o),
(475,800,o),
(315,800,cs),
(146,800,o),
(160,650,o),
(76,684,c),
(60,676,l),
(134,574,l),
(173,669,l),
(212,752,o),
(259,757,o),
(327,754,cs),
(427,749,o),
(488,687,o),
(488,570,cs)
);
}
);
};
layerId = m002;
shapes = (
{
closed = 1;
nodes = (
(574,346,o),
(484,404,o),
(397,420,c),
(397,424,l),
(454,444,o),
(556,459,o),
(563,586,cs),
(570,716,o),
(466,800,o),
(320,800,cs),
(144,800,o),
(163,658,o),
(76,684,c),
(60,676,l),
(134,574,l),
(163,645,l),
(192,717,o),
(218,759,o),
(321,755,cs),
(419,751,o),
(484,686,o),
(484,594,cs),
(484,488,o),
(388,431,o),
(283,431,cs),
(229,431,l),
(229,396,l),
(282,396,ls),
(400,396,o),
(499,329,o),
(499,219,cs),
(499,110,o),
(394,43,o),
(278,48,cs),
(186,52,o),
(91,103,o),
(73,243,c),
(60,209,l),
(79,65,o),
(140,-10,o),
(298,-10,cs),
(462,-10,o),
(574,90,o),
(574,220,cs)
);
}
);
width = 600;
}
);
unicode = 51;
},
{
glyphname = four;
lastChange = "2024-04-12 14:02:45 +0000";
layers = (
{
background = {
shapes = (
{
closed = 1;
nodes = (
(109,273,l),
(109,273,o),
(158,332,o),
(186,371,cs),
(322,558,ls),
(351,599,o),
(385,661,o),
(385,661,c),
(387,661,l),
(387,661,o),
(382,587,o),
(382,544,cs),
(382,276,l),
(217,276,ls),
(175,276,o),
(109,271,o),
(109,271,c)
);
},
{
closed = 1;
nodes = (
(597,192,l),
(597,276,l),
(478,276,l),
(478,800,l),
(397,800,l),
(29,288,l),
(29,192,l),
(382,192,l),
(382,0,l),
(478,0,l),
(478,192,l)
);
}
);
};
layerId = m01;
shapes = (
{
closed = 1;
nodes = (
(387,661,o),
(387,661,o),
(387,661,cs),
(382,276,l),
(109,276,l),
(385,661,ls),
(385,661,o),
(387,661,o),
(387,661,cs)
);
},
{
closed = 1;
nodes = (
(29,192,l),
(382,192,l),
(382,12,ls),
(382,12,o),
(382,12,o),
(382,12,cs),
(382,12,l),
(382,0,l),
(478,0,l),
(478,12,l),
(478,12,ls),
(478,12,o),
(478,12,o),
(478,12,cs),
(478,192,l),
(597,192,l),
(597,276,l),
(478,276,l),
(478,800,l),
(397,800,l),
(29,288,l)
);
}
);
width = 600;
},
{
layerId = m002;
shapes = (
{
closed = 1;
nodes = (
(339,631,o),
(341,629,o),
(341,619,cs),
(341,255,l),
(69,255,l),
(322,619,ls),
(329,629,o),
(333,631,o),
(336,631,cs)
);
},
{
closed = 1;
nodes = (
(20,216,l),
(341,216,l),
(341,97,ls),
(341,34,o),
(312,36,o),
(251,36,cs),
(201,36,l),
(201,0,l),
(555,0,l),
(555,36,l),
(504,36,ls),
(443,36,o),
(414,34,o),
(414,97,cs),
(414,216,l),
(599,216,l),
(539,255,l),
(414,255,l),
(414,800,l),
(399,800,l),
(20,255,l)
);
}
);
width = 600;
}
);
unicode = 52;
},
{
glyphname = five;
lastChange = "2024-04-12 14:45:30 +0000";
layers = (
{
background = {
shapes = (
{
closed = 1;
nodes = (
(439,-15,o),
(549,91,o),
(549,263,cs),
(549,427,o),
(435,528,o),
(315,528,cs),
(242,528,o),
(179,514,o),
(139,468,c),
(137,468,l),
(137,706,l),
(506,706,l),
(506,800,l),
(49,800,l),
(49,375,l),
(141,375,l),
(168,413,o),
(218,437,o),
(297,437,cs),
(382,437,o),
(451,369,o),
(451,265,cs),
(451,152,o),
(388,78,o),
(289,78,cs),
(192,78,o),
(142,135,o),
(127,216,c),
(32,216,l),
(41,87,o),
(141,-15,o),
(291,-15,cs)
);
}
);
};
layerId = m01;
shapes = (
{
closed = 1;
nodes = (
(428,432,o),
(469,332,o),
(473,296,cs),
(489,164,o),
(429,72,o),
(304,72,cs),
(191,72,o),
(151,143,o),
(136,210,c),
(37,210,l),
(51,73,o),
(160,-16,o),
(313,-16,cs),
(484,-16,o),
(574,100,o),
(574,257,cs),
(574,449,o),
(460,523,o),
(337,523,cs),
(245,523,o),
(193,491,o),
(151,459,c),
(151,707,ls),
(151,707,o),
(151,707,o),
(151,707,cs),
(522,707,ls),
(522,707,o),
(522,707,o),
(522,707,c),
(540,707,l),
(540,800,l),
(55,800,l),
(55,375,l),
(150,375,l),
(203,436,o),
(285,438,o),
(312,437,cs)
);
}
);
width = 600;
},
{
background = {
shapes = (
{
closed = 0;
nodes = (
(278,48,ls),
(186,52,o),
(91,103,o),
(73,243,c),
(60,209,l),
(79,65,o),
(140,-10,o),
(298,-10,cs)
);
}
);
};
layerId = m002;
shapes = (
{
closed = 1;
nodes = (
(425,477,o),
(516,377,o),
(519,270,cs),
(523,139,o),
(403,31,o),
(283,31,cs),
(180,31,o),
(88,112,o),
(73,243,c),
(60,209,l),
(73,72,o),
(150,-10,o),
(298,-10,cs),
(462,-10,o),
(575,112,o),
(575,269,cs),
(575,461,o),
(439,516,o),
(321,516,cs),
(232,516,o),
(168,480,o),
(128,455,c),
(143,685,ls),
(146,735,o),
(161,752,o),
(207,752,cs),
(350,752,ls),
(484,752,o),
(524,702,o),
(540,652,c),
(565,665,l),
(510,800,l),
(111,800,l),
(88,395,l),
(120,395,l),
(138,429,o),
(214,477,o),
(299,477,cs)
);
}
);
width = 600;
}
);
unicode = 53;
},
{
glyphname = six;
lastChange = "2024-04-12 14:53:18 +0000";
layers = (
{
background = {
shapes = (
{
closed = 1;
nodes = (
(464,-16,o),
(577,104,o),
(576,252,cs),
(575,398,o),
(466,515,o),
(331,515,cs),
(242,515,o),
(177,478,o),
(128,393,c),
(126,393,l),
(131,595,o),
(184,713,o),
(323,713,cs),
(405,713,o),
(450,653,o),
(457,600,c),
(555,600,l),
(542,696,o),
(468,800,o),
(320,800,cs),
(225,800,o),
(154,761,o),
(105,690,cs),
(57,619,o),
(32,517,o),
(32,396,cs),
(32,239,o),
(58,133,o),
(134,58,cs),
(179,12,o),
(240,-16,o),
(323,-16,cs)
);
},
{
closed = 1;
nodes = (
(221,68,o),
(145,143,o),
(145,250,cs),
(145,359,o),
(215,430,o),
(317,430,cs),
(412,430,o),
(483,356,o),
(483,249,cs),
(483,142,o),
(414,68,o),
(320,68,cs)
);
}
);
};
layerId = m01;
shapes = (
{
closed = 1;
nodes = (
(441,740,o),
(456,623,o),
(456,623,c),
(456,623,l),
(555,623,l),
(555,623,l),
(555,623,o),
(535,821,o),
(327,830,cs),
(103,839,o),
(23,631,o),
(23,400,cs),
(23,138,o),
(115,-9,o),
(319,-16,cs),
(475,-21,o),
(577,127,o),
(577,262,cs),
(577,427,o),
(455,534,o),
(327,534,cs),
(236,534,o),
(174,497,o),
(119,408,c),
(124,618,o),
(174,740,o),
(319,740,cs)
);
},
{
closed = 1;
nodes = (
(382,447,o),
(482,406,o),
(482,259,cs),
(482,193,o),
(449,72,o),
(316,72,cs),
(184,72,o),
(133,184,o),
(139,272,cs),
(147,396,o),
(229,447,o),
(306,447,cs)
);
}
);
width = 600;
},
{
background = {
shapes = (
{
closed = 0;
nodes = (
(169,594,ls),
(169,686,o),
(234,751,o),
(332,755,cs),
(435,759,o),
(461,717,o),
(490,645,c),
(519,574,l),
(593,676,l),
(577,684,l),
(490,658,o),
(509,800,o),
(333,800,cs),
(187,800,o),
(83,716,o),
(90,586,cs)
);
}
);
};
layerId = m002;
shapes = (
{
closed = 1;
nodes = (
(434,762,o),
(474,703,o),
(513,589,c),
(519,574,l),
(593,676,l),
(577,684,l),
(501,661,o),
(491,796,o),
(349,800,cs),
(140,806,o),
(28,608,o),
(28,385,cs),
(28,132,o),
(150,-10,o),
(296,-10,cs),
(449,-10,o),
(551,101,o),
(551,255,cs),
(551,415,o),
(442,517,o),
(306,517,cs),
(216,517,o),
(169,470,o),
(122,420,c),
(128,614,o),
(198,762,o),
(341,762,cs)
);
},
{
closed = 1;
nodes = (
(418,484,o),
(500,378,o),
(500,226,cs),
(500,107,o),
(417,1,o),
(295,14,cs),
(158,29,o),
(119,186,o),
(119,271,cs),
(119,390,o),
(193,466,o),
(277,473,cs)
);
}
);
width = 600;
}
);
unicode = 54;
},
{
glyphname = seven;
lastChange = "2024-04-12 14:48:52 +0000";
layers = (
{
background = {
shapes = (
{
closed = 1;
nodes = (
(265,0,l),
(279,313,o),
(419,570,o),
(563,713,c),
(563,800,l),
(62,800,l),
(62,704,l),
(339,704,ls),
(414,704,o),
(470,709,o),
(470,709,c),
(470,707,l),
(309,561,o),
(178,281,o),
(163,0,c)
);
}
);
};
layerId = m01;
shapes = (
{
closed = 1;
nodes = (
(272,353,o),
(467,604,o),
(563,688,c),
(563,800,l),
(62,800,l),
(62,707,l),
(62,707,l),
(62,707,o),
(62,707,o),
(62,707,cs),
(454,707,ls),
(454,707,o),
(454,707,o),
(454,707,cs),
(454,707,o),
(238,523,o),
(174,77,cs),
(163,0,l),
(272,0,l)
);
}
);
width = 600;
},
{
layerId = m002;
shapes = (
{
closed = 1;
nodes = (
(333,326,o),
(528,703,o),
(592,787,c),
(592,791,l),
(112,791,l),
(60,663,l),
(84,651,l),
(100,702,o),
(156,752,o),
(293,752,cs),
(458,752,ls),
(478,752,o),
(486,742,o),
(486,728,cs),
(486,662,o),
(289,296,o),
(258,77,cs),
(247,0,l),
(333,0,l)
);
}
);
width = 600;
}
);
unicode = 55;
},
{
glyphname = eight;
lastChange = "2024-04-12 15:02:14 +0000";
layers = (
{
background = {
shapes = (
{
closed = 1;
nodes = (
(440,-16,o),
(573,52,o),
(573,229,cs),
(573,335,o),
(511,409,o),
(420,434,c),
(420,438,l),
(496,465,o),
(539,525,o),
(539,606,cs),
(539,733,o),
(436,814,o),
(301,814,cs),
(167,814,o),
(64,731,o),
(64,605,cs),
(64,523,o),
(107,463,o),
(184,438,c),
(184,434,l),
(93,407,o),
(28,341,o),
(28,229,cs),
(28,53,o),
(168,-16,o),
(304,-16,cs)
);
},
{
closed = 1;
nodes = (
(212,475,o),
(157,522,o),
(157,601,cs),
(157,680,o),
(212,727,o),
(301,727,cs),
(390,727,o),
(445,680,o),
(445,601,cs),
(445,522,o),
(390,475,o),
(301,475,cs)
);
},
{
closed = 1;
nodes = (
(193,72,o),
(127,130,o),
(127,230,cs),
(127,330,o),
(192,393,o),
(301,393,cs),
(411,393,o),
(477,330,o),
(477,230,cs),
(477,131,o),
(411,72,o),
(304,72,cs)
);
}
);
};
layerId = m01;
shapes = (
{
closed = 1;
nodes = (
(571,355,o),
(508,405,o),
(420,447,c),
(499,489,o),
(539,532,o),
(539,625,cs),
(539,739,o),
(447,826,o),
(313,826,cs),
(164,826,o),
(64,737,o),
(64,616,cs),
(64,521,o),
(121,479,o),
(184,447,c),
(78,405,o),
(28,340,o),
(28,228,cs),
(28,90,o),
(135,-10,o),
(304,-10,cs),
(460,-10,o),
(576,77,o),
(573,235,cs)
);
},
{
closed = 1;
nodes = (
(247,489,o),
(157,517,o),
(157,620,cs),
(157,714,o),
(222,752,o),
(312,749,cs),
(424,745,o),
(443,662,o),
(445,626,cs),
(448,560,o),
(408,489,o),
(301,489,cs)
);
},
{
closed = 1;
nodes = (
(127,319,o),
(176,405,o),
(301,405,cs),
(426,405,o),
(477,320,o),
(477,236,cs),
(477,132,o),
(406,71,o),
(304,72,cs),
(225,73,o),
(127,109,o),
(127,236,cs)
);
}
);
width = 600;
},
{
layerId = m002;
shapes = (
{
closed = 1;
nodes = (
(547,354,o),
(462,389,o),
(371,431,c),
(466,468,o),
(525,529,o),
(525,621,cs),
(525,729,o),
(444,812,o),
(307,812,cs),
(168,812,o),
(73,731,o),
(73,611,cs),
(73,503,o),
(138,451,o),
(219,411,c),
(111,369,o),
(40,304,o),
(40,192,cs),
(40,56,o),
(146,-15,o),
(286,-19,cs),
(437,-23,o),
(569,62,o),
(557,222,cs)
);
},
{
closed = 1;
nodes = (
(224,497,o),
(126,533,o),
(126,634,cs),
(126,735,o),
(218,788,o),
(306,788,cs),
(420,788,o),
(483,710,o),
(483,618,cs),
(483,525,o),
(407,476,o),
(336,449,c)
);
},
{
closed = 1;
nodes = (
(115,294,o),
(164,363,o),
(252,396,c),
(370,346,o),
(497,308,o),
(497,187,cs),
(497,85,o),
(405,-2,o),
(295,3,cs),
(197,7,o),
(115,83,o),
(115,199,cs)
);
}
);
width = 600;
}
);
unicode = 56;
},
{
glyphname = nine;
lastChange = "2024-04-12 17:30:51 +0000";
layers = (
{
background = {
shapes = (
{
closed = 1;
nodes = (
(210,357,o),
(138,434,o),
(138,541,cs),
(138,649,o),
(205,724,o),
(301,724,cs),
(395,724,o),
(470,649,o),
(470,541,cs),
(470,432,o),
(404,357,o),
(300,357,cs)
);
},
{
closed = 1;
nodes = (
(376,-16,o),
(435,7,o),
(478,52,cs),
(547,120,o),
(576,236,o),
(576,394,cs),
(576,566,o),
(550,679,o),
(469,748,cs),
(427,783,o),
(372,809,o),
(301,809,cs),
(155,809,o),
(47,688,o),
(48,539,cs),
(49,390,o),
(155,271,o),
(287,271,cs),
(371,271,o),
(437,313,o),
(483,383,c),
(485,383,l),
(481,259,o),
(463,174,o),
(422,125,cs),
(394,89,o),
(356,71,o),
(303,71,cs),
(212,71,o),
(164,131,o),
(155,197,c),
(58,197,l),
(67,80,o),
(164,-16,o),
(305,-16,cs)
);
}
);
};
layerId = m01;
shapes = (
{
closed = 1;
nodes = (
(203,76,o),
(164,131,o),
(155,197,c),
(58,197,l),
(73,77,o),
(155,-6,o),
(268,-10,cs),
(556,-20,o),
(575,203,o),
(575,441,cs),
(575,687,o),
(454,809,o),
(292,809,cs),
(146,809,o),
(49,679,o),
(49,532,cs),
(49,372,o),
(173,272,o),
(283,268,cs),
(369,265,o),
(439,320,o),
(485,369,c),
(492,224,o),
(437,64,o),
(297,71,cs)
);
},
{
closed = 1;
nodes = (
(224,357,o),
(132,428,o),
(135,548,cs),
(138,649,o),
(214,724,o),
(301,724,cs),
(411,724,o),
(470,632,o),
(470,541,cs),
(470,425,o),
(390,357,o),
(300,357,cs)
);
}
);
width = 600;
},
{
layerId = m002;
shapes = (
{
closed = 1;
nodes = (
(182,50,o),
(80,123,o),
(73,243,c),
(60,209,l),
(75,89,o),
(150,-6,o),
(268,-10,cs),
(489,-17,o),
(564,174,o),
(564,412,cs),
(564,658,o),
(454,800,o),
(292,800,cs),
(146,800,o),
(49,686,o),
(49,532,cs),
(49,372,o),
(153,268,o),
(283,268,cs),
(369,268,o),
(439,320,o),
(485,369,c),
(511,160,o),
(407,36,o),
(276,44,cs)
);
},
{
closed = 1;
nodes = (
(193,320,o),
(102,408,o),
(102,548,cs),
(102,690,o),
(209,765,o),
(296,765,cs),
(406,765,o),
(485,673,o),
(487,528,cs),
(489,412,o),
(414,320,o),
(301,320,cs)
);
}
);
width = 600;
}
);
unicode = 57;
},
